<?xml version="1.0" encoding="utf-8"?>
<!-- Generator: Adobe Illustrator 16.0.0, SVG Export Plug-In . SVG Version: 6.00 Build 0)  -->
<!DOCTYPE svg PUBLIC "-//W3C//DTD SVG 1.1//EN" "http://www.w3.org/Graphics/SVG/1.1/DTD/svg11.dtd">
<svg version="1.1" id="Layer_1" xmlns="http://www.w3.org/2000/svg" xmlns:xlink="http://www.w3.org/1999/xlink" x="0px" y="0px"
     width="500px" height="300px" viewBox="0 0 500 300" enable-background="new 0 0 500 300" xml:space="preserve">
<title>Asset 1</title>
    <g id="Layer_2">
	<g id="Layer_2-2">
		<path fill="#FFFFFF" d="M101.91,236.807c4.481,26.848,21.87,45.434,44.875,43.761c32.546-2.251,69.595-32.546,74.634-76.409
			c0.578-5.061,14.042-2.809,12.907,5.596c-3.924,33.683-46.011,80.809-96.503,86.983c-43.822,5.72-81.965-22.902-74.117-85.187
			v-0.558c8.426-67.343,48.262-95.347,79.672-98.196c31.989-2.809,59.496,15.241,52.186,48.799
			C186.043,203.683,142.82,226.688,101.91,236.807z M141.705,129.07c-14.601,4.481-33.6,29.18-39.795,81.366v1.115
			c-0.655,4.273-1.034,8.585-1.136,12.907c33.682-10.099,55.552-33.042,60.611-57.245
			C167.519,143.092,157.978,124.01,141.705,129.07z"/>
        <path fill="#FFFFFF" d="M280.854,22.448c0,0-7.869,62.222-15.158,124.568c11.234-15.158,26.371-28.065,43.78-31.989
			c34.776-7.29,64.019,19.082,56.109,83.617l-0.558,0.557c-4.502,39.238-21.891,69.017-43.223,84.67
			c44.021-2.291,80.019-35.909,85.31-79.672c0.558-5.06,14.022-2.809,12.907,5.596c-5.617,44.339-67.344,108.316-144.785,85.29
			c-1.674-0.558-2.809-0.558-3.924-1.673c-8.77-3.096-16.398-8.768-21.891-16.273c-2.23,9.541-7.848,19.082-23.005,19.082
			c-12.907,0-15.716-6.195-14.022-22.447c0,0,29.18-235.672,30.853-248.579C244.403,15.158,247.749,0,266.83,0
			C279.717,0,283.104,6.195,280.854,22.448z M260.656,186.852l-6.732,55.553c-0.578,15.736,6.732,34.322,23.521,34.322
			c20.651,0,43.203-26.372,49.377-76.885l0.558-1.115c5.06-41.529-3.923-69.017-23.563-66.786
			C279.717,135.224,265.695,164.982,260.656,186.852z"/>
        <path fill="#FFFFFF" d="M414.445,179.666c-13.01,0-19.246-9.046-17.532-21.498c1.714-12.453,9.603-20.92,22.716-20.92
			c12.391,0,19.227,8.467,17.533,20.92C435.469,170.62,426.878,179.666,414.445,179.666z"/>
	</g>
</g>
</svg>
