<?xml version="1.0" encoding="utf-8"?>
<!-- Generator: Adobe Illustrator 16.0.0, SVG Export Plug-In . SVG Version: 6.00 Build 0)  -->
<!DOCTYPE svg PUBLIC "-//W3C//DTD SVG 1.1//EN" "http://www.w3.org/Graphics/SVG/1.1/DTD/svg11.dtd">
<svg version="1.1" id="Layer_1" xmlns="http://www.w3.org/2000/svg" xmlns:xlink="http://www.w3.org/1999/xlink" x="0px" y="0px"
	 width="596px" height="200px" viewBox="0 0 596 200" enable-background="new 0 0 596 200" xml:space="preserve">
<g>
	<g>
		<g>
			<path fill="#FFFFFF" d="M99.754,175.854h-6.78v6.289h7.556v1.89h-9.807V166.59h9.419v1.889h-7.168v5.513h6.78V175.854z"/>
			<path fill="#FFFFFF" d="M115.12,171.507l1.787,2.69c0.465,0.699,0.854,1.346,1.267,2.044h0.078
				c0.415-0.75,0.828-1.397,1.242-2.07l1.76-2.664h2.458l-4.27,6.056l4.399,6.47h-2.587l-1.836-2.821
				c-0.493-0.725-0.906-1.422-1.347-2.173h-0.052c-0.413,0.751-0.854,1.423-1.319,2.173l-1.812,2.821h-2.51l4.451-6.394
				l-4.244-6.132H115.12L115.12,171.507z"/>
			<path fill="#FFFFFF" d="M145.263,183.564c-0.595,0.312-1.914,0.726-3.597,0.726c-3.779,0-6.237-2.562-6.237-6.394
				c0-3.854,2.64-6.649,6.728-6.649c1.347,0,2.537,0.337,3.157,0.647l-0.517,1.76c-0.543-0.312-1.397-0.596-2.641-0.596
				c-2.872,0-4.424,2.121-4.424,4.734c0,2.898,1.862,4.686,4.347,4.686c1.293,0,2.147-0.336,2.794-0.621L145.263,183.564z"/>
			<path fill="#FFFFFF" d="M161.149,167.986c0.025,0.775-0.543,1.396-1.449,1.396c-0.802,0-1.372-0.621-1.372-1.396
				c0-0.803,0.595-1.424,1.424-1.424C160.606,166.562,161.149,167.186,161.149,167.986z M158.613,184.031v-12.524h2.278v12.524
				H158.613z"/>
			<path fill="#FFFFFF" d="M178.096,167.908v3.599h3.261v1.733h-3.261v6.753c0,1.553,0.44,2.434,1.708,2.434
				c0.595,0,1.035-0.077,1.319-0.155l0.104,1.709c-0.44,0.181-1.139,0.311-2.018,0.311c-1.062,0-1.916-0.336-2.458-0.957
				c-0.648-0.674-0.881-1.787-0.881-3.261v-6.832h-1.94v-1.733h1.94v-3.003L178.096,167.908z"/>
			<path fill="#FFFFFF" d="M197.138,167.986c0.025,0.775-0.543,1.396-1.449,1.396c-0.802,0-1.372-0.621-1.372-1.396
				c0-0.803,0.595-1.424,1.424-1.424C196.595,166.562,197.138,167.186,197.138,167.986z M194.601,184.031v-12.524h2.278v12.524
				H194.601z"/>
			<path fill="#FFFFFF" d="M211.342,174.896c0-1.295-0.025-2.355-0.104-3.391h2.019l0.13,2.069h0.052
				c0.621-1.19,2.069-2.354,4.14-2.354c1.734,0,4.425,1.035,4.425,5.331v7.479h-2.278v-7.221c0-2.02-0.75-3.699-2.898-3.699
				c-1.501,0-2.666,1.06-3.053,2.328c-0.104,0.285-0.156,0.672-0.156,1.061v7.531h-2.277V174.896L211.342,174.896z"/>
			<path fill="#FFFFFF" d="M247.177,171.507c-0.052,0.905-0.104,1.914-0.104,3.441v7.271c0,2.873-0.569,4.633-1.785,5.719
				c-1.217,1.14-2.977,1.502-4.554,1.502c-1.501,0-3.157-0.362-4.167-1.035l0.568-1.734c0.829,0.52,2.123,0.984,3.675,0.984
				c2.33,0,4.038-1.217,4.038-4.375v-1.396h-0.052c-0.698,1.164-2.044,2.097-3.986,2.097c-3.105,0-5.331-2.641-5.331-6.107
				c0-4.244,2.769-6.65,5.642-6.65c2.174,0,3.364,1.139,3.907,2.174h0.052l0.104-1.889L247.177,171.507L247.177,171.507z
				 M244.822,176.448c0-0.388-0.025-0.724-0.129-1.034c-0.414-1.32-1.527-2.406-3.184-2.406c-2.173,0-3.726,1.836-3.726,4.734
				c0,2.459,1.242,4.504,3.7,4.504c1.397,0,2.666-0.881,3.157-2.33c0.129-0.389,0.181-0.828,0.181-1.216L244.822,176.448
				L244.822,176.448z"/>
			<path fill="#FFFFFF" d="M280.034,166.59v17.441h-2.251V166.59H280.034z"/>
			<path fill="#FFFFFF" d="M294.833,174.896c0-1.295-0.025-2.355-0.104-3.391h2.019l0.13,2.069h0.052
				c0.62-1.19,2.069-2.354,4.14-2.354c1.734,0,4.426,1.035,4.426,5.331v7.479h-2.279v-7.221c0-2.02-0.75-3.699-2.896-3.699
				c-1.501,0-2.666,1.06-3.054,2.328c-0.104,0.285-0.155,0.672-0.155,1.061v7.531h-2.278L294.833,174.896L294.833,174.896z"/>
			<path fill="#FFFFFF" d="M319.877,174.896c0-1.295-0.025-2.355-0.104-3.391h2.019l0.131,2.069h0.052
				c0.621-1.19,2.068-2.354,4.142-2.354c1.733,0,4.424,1.035,4.424,5.331v7.479h-2.276v-7.221c0-2.02-0.75-3.699-2.897-3.699
				c-1.501,0-2.665,1.06-3.056,2.328c-0.104,0.285-0.153,0.672-0.153,1.061v7.531h-2.278v-9.135H319.877z"/>
			<path fill="#FFFFFF" d="M356.258,177.665c0,4.633-3.209,6.649-6.234,6.649c-3.392,0-6.006-2.482-6.006-6.442
				c0-4.192,2.742-6.651,6.213-6.651C353.825,171.221,356.258,173.835,356.258,177.665z M346.32,177.794
				c0,2.744,1.578,4.813,3.806,4.813c2.173,0,3.804-2.045,3.804-4.865c0-2.121-1.062-4.812-3.754-4.812
				S346.32,175.414,346.32,177.794z"/>
			<path fill="#FFFFFF" d="M370.511,171.507l2.458,7.038c0.415,1.139,0.752,2.174,1.012,3.208h0.076
				c0.284-1.034,0.646-2.069,1.062-3.208l2.433-7.038h2.381l-4.916,12.524h-2.174l-4.763-12.524H370.511z"/>
			<path fill="#FFFFFF" d="M399.592,184.031l-0.18-1.579h-0.078c-0.699,0.983-2.044,1.862-3.83,1.862
				c-2.537,0-3.83-1.784-3.83-3.597c0-3.028,2.69-4.685,7.531-4.657v-0.26c0-1.033-0.285-2.898-2.848-2.898
				c-1.164,0-2.381,0.363-3.26,0.933l-0.519-1.501c1.034-0.673,2.535-1.113,4.114-1.113c3.83,0,4.763,2.614,4.763,5.125v4.684
				c0,1.088,0.05,2.147,0.207,3.003L399.592,184.031L399.592,184.031z M399.256,177.639c-2.482-0.052-5.304,0.389-5.304,2.821
				c0,1.476,0.983,2.174,2.147,2.174c1.63,0,2.665-1.036,3.026-2.096c0.078-0.233,0.129-0.493,0.129-0.726L399.256,177.639
				L399.256,177.639z"/>
			<path fill="#FFFFFF" d="M418.453,167.908v3.599h3.263v1.733h-3.263v6.753c0,1.553,0.439,2.434,1.708,2.434
				c0.597,0,1.036-0.077,1.319-0.155l0.104,1.709c-0.439,0.181-1.137,0.311-2.017,0.311c-1.062,0-1.915-0.336-2.458-0.957
				c-0.649-0.674-0.883-1.787-0.883-3.261v-6.832h-1.939v-1.733h1.939v-3.003L418.453,167.908z"/>
			<path fill="#FFFFFF" d="M437.497,167.986c0.025,0.775-0.543,1.396-1.45,1.396c-0.801,0-1.372-0.621-1.372-1.396
				c0-0.803,0.597-1.424,1.425-1.424C436.954,166.562,437.497,167.186,437.497,167.986z M434.96,184.031v-12.524h2.276v12.524
				H434.96z"/>
			<path fill="#FFFFFF" d="M463.034,177.665c0,4.633-3.209,6.649-6.236,6.649c-3.391,0-6.006-2.482-6.006-6.442
				c0-4.192,2.744-6.651,6.213-6.651C460.601,171.221,463.034,173.835,463.034,177.665z M453.097,177.794
				c0,2.744,1.579,4.813,3.806,4.813c2.173,0,3.803-2.045,3.803-4.865c0-2.121-1.062-4.812-3.752-4.812
				C454.263,172.93,453.097,175.414,453.097,177.794z"/>
			<path fill="#FFFFFF" d="M476.589,174.896c0-1.295-0.023-2.355-0.104-3.391h2.02l0.129,2.069h0.053
				c0.619-1.19,2.069-2.354,4.14-2.354c1.734,0,4.427,1.035,4.427,5.331v7.479h-2.279v-7.221c0-2.02-0.75-3.699-2.897-3.699
				c-1.5,0-2.665,1.06-3.052,2.328c-0.104,0.285-0.156,0.672-0.156,1.061v7.531h-2.277v-9.135H476.589z"/>
			<path fill="#FFFFFF" d="M501.322,181.701c0.673,0.441,1.861,0.906,3.002,0.906c1.657,0,2.434-0.827,2.434-1.863
				c0-1.087-0.646-1.682-2.33-2.303c-2.251-0.803-3.312-2.045-3.312-3.545c0-2.021,1.63-3.676,4.323-3.676
				c1.266,0,2.38,0.362,3.076,0.776l-0.567,1.655c-0.492-0.311-1.396-0.726-2.562-0.726c-1.347,0-2.098,0.777-2.098,1.708
				c0,1.036,0.751,1.502,2.383,2.123c2.173,0.827,3.285,1.915,3.285,3.778c0,2.198-1.708,3.752-4.683,3.752
				c-1.371,0-2.641-0.336-3.521-0.854L501.322,181.701z"/>
		</g>
	</g>
</g>
<g>
	<path fill="#FFFFFF" d="M13.36,117.215c2.376,9.938,10.155,16.852,19.013,16.205c12.531-0.863,26.79-12.531,28.734-29.385
		c0.217-1.943,5.401-1.08,4.969,2.162c-1.512,12.963-17.716,31.111-37.161,33.486c-16.852,2.159-31.542-8.858-28.518-32.838v-0.218
		C3.639,80.703,18.979,69.9,31.076,68.82c12.315-1.081,22.901,5.833,20.093,18.795C47.281,104.252,29.564,113.326,13.36,117.215z
		 M30.428,75.085c-5.617,1.729-15.123,11.235-17.5,31.328v0.433c-0.216,1.943-0.432,3.672-0.216,5.4
		c14.259-3.457,25.278-12.748,27.438-22.47C42.527,80.487,36.694,73.141,30.428,75.085z"/>
	<path fill="#FFFFFF" d="M73.85,99.283l-0.648,5.617c-1.943,16.422,3.889,27.656,10.155,27.656c7.993,0,15.339-11.668,17.284-28.521
		c0.215-1.943,5.401-1.08,4.97,2.162c-1.514,12.963-10.371,32.839-25.278,32.839c-12.099,0-22.253-11.235-19.445-34.136
		c0.432-3.457,0.864-7.778,1.296-10.154C69.097,37.493,82.924,12,96.319,12c9.291,0,11.235,16.204,4.537,38.024
		C95.239,67.74,83.572,86.752,73.85,99.283z M75.146,89.128c8.643-12.747,16.853-28.085,20.525-40.616
		c5.185-18.364,4.752-31.328,0-31.328C86.597,17.185,80.764,42.679,75.146,89.128z"/>
	<path fill="#FFFFFF" d="M161.78,132.557c7.993,0,12.963-11.668,14.907-28.521c0.216-1.943,5.401-1.08,4.969,2.162
		c-1.512,12.963-8.209,33.054-23.333,33.054c-9.073,0-14.907-4.535-15.987-16.634c-5.185,7.775-12.747,14.691-20.524,16.419
		c-13.395,2.808-24.629-7.13-21.605-32.19v-0.217c3.024-24.63,18.581-38.025,36.296-38.025c9.723,0,22.902,6.049,21.388,19.012
		c-0.432,3.89-2.592,7.346-7.561,9.075c-4.752,1.728-5.834-1.296-5.185-6.05v-0.864c1.081-7.129-1.514-15.771-10.155-15.771
		c-7.994,0-19.876,12.963-22.253,32.408v0.434c-1.944,15.985,3.672,26.573,11.019,25.709c10.371-1.299,18.148-15.99,19.228-24.197
		v-0.217c0.432-3.457,5.186-6.914,9.506-8.21c3.673-1.08,3.889,0.216,3.241,5.618C153.569,122.186,155.298,132.557,161.78,132.557z"
		/>
	<path fill="#FFFFFF" d="M173.44,69.252h7.347l1.728-12.963c0.432-3.889,2.808-9.721,10.153-9.721c3.674,0,3.025,2.376,2.162,8.857
		l-1.729,13.827h16.637c2.592,0,0.647,5.185-1.513,5.185h-15.773L188.78,104.9c-2.16,16.635,2.592,27.654,9.075,27.654
		c7.993,0,14.043-11.021,16.203-28.521c0.216-1.943,5.401-1.08,4.969,2.161c-1.728,14.691-9.938,33.055-23.333,33.055
		c-12.098,0-22.038-11.45-19.229-34.352c0,0,1.728-15.556,3.674-30.462h-7.563C169.984,74.437,171.064,69.252,173.44,69.252z"/>
	<path fill="#FFFFFF" d="M226.585,117.215c2.376,9.938,10.154,16.852,19.013,16.205c12.531-0.863,26.79-12.531,28.734-29.385
		c0.216-1.943,5.4-1.08,4.968,2.162c-1.511,12.963-17.715,31.111-37.161,33.486c-16.852,2.159-31.542-8.858-28.518-32.838v-0.218
		C216.864,80.703,232.203,69.9,244.3,68.82c12.315-1.081,22.902,5.833,20.094,18.795
		C260.505,104.252,242.788,113.326,226.585,117.215z M243.653,75.085c-5.617,1.729-15.124,11.235-17.5,31.328v0.433
		c-0.216,1.943-0.432,3.672-0.216,5.4c14.259-3.457,25.278-12.748,27.438-22.47C255.751,80.487,249.918,73.141,243.653,75.085z"/>
	<path fill="#FFFFFF" d="M295.067,34.037c0,0-3.024,25.277-6.05,49.907c5.186-6.913,11.883-12.747,19.229-14.259
		c13.396-2.808,24.63,7.346,21.605,32.191l-0.218,0.217c-1.729,15.123-8.424,26.572-16.636,32.624
		c17.285-1.08,30.679-13.826,32.839-30.681c0.218-1.943,5.402-1.08,4.97,2.162c-2.16,17.065-25.926,41.696-55.74,32.839
		c-0.648-0.217-1.08-0.217-1.511-0.648c-4.323-1.512-7.78-4.32-10.372-7.777c-0.215,3.89,0,8.859-6.914,8.859
		c-4.969,0-6.049-2.379-5.401-8.645c0,0,11.235-90.739,11.883-95.708c0.432-3.889,1.728-9.722,9.075-9.722
		C296.795,25.395,295.932,27.771,295.067,34.037z M287.289,97.986l-2.592,20.743c0.216,6.265,4.969,13.826,11.452,13.826
		c9.289,0,18.58-10.156,20.957-30.248l0.215-0.433c1.945-15.987-1.729-26.574-11.233-25.71
		C296.58,77.462,289.233,89.56,287.289,97.986z"/>
	<path fill="#FFFFFF" d="M381.268,104.9c-2.375,19.442-0.646,27.654,5.615,27.654c7.562,0,13.396-11.666,15.34-28.521
		c0.218-1.943,5.401-1.08,4.971,2.161c-1.512,12.964-9.938,33.055-25.493,33.055c-12.099,0-15.771-11.665-13.611-30.029
		c0.218-0.863,0.649-4.97,0.649-4.97c3.023-24.197-0.219-26.142-9.508-27.005c-1.729,0-3.457-0.216-4.754-0.432l-3.455,28.303
		c-0.434,2.592-5.402,1.512-5.186-0.648l3.456-28.304c-4.97-1.08-6.698-3.024-6.049-7.777c1.079-9.075,14.043-14.907,13.394-8.641
		c-1.078,7.993-1.296,9.073,8.428,9.505c19.66,0.864,20.309,2.161,16.636,31.76C381.699,101.011,381.268,104.252,381.268,104.9z"/>
	<path fill="#FFFFFF" d="M463.359,132.557c7.994,0,12.965-11.668,14.906-28.521c0.219-1.943,5.402-1.08,4.972,2.162
		c-1.515,12.963-8.21,33.054-23.334,33.054c-9.073,0-14.907-4.535-15.988-16.634c-5.187,7.775-12.747,14.691-20.524,16.419
		c-13.394,2.808-24.63-7.13-21.604-32.19v-0.217c3.027-24.63,18.581-38.025,36.298-38.025c9.723,0,22.901,6.049,21.388,19.012
		c-0.432,3.89-2.592,7.346-7.562,9.075c-4.753,1.728-5.834-1.296-5.186-6.05v-0.864c1.081-7.129-1.514-15.771-10.154-15.771
		c-7.994,0-19.877,12.963-22.252,32.408v0.434c-1.945,15.985,3.671,26.573,11.019,25.709c10.369-1.299,18.146-15.99,19.229-24.197
		v-0.217c0.433-3.457,5.186-6.914,9.506-8.21c3.674-1.08,3.889,0.216,3.241,5.618C455.15,122.186,456.879,132.557,463.359,132.557z"
		/>
	<path fill="#FFFFFF" d="M481.286,78.759c0.433-3.89,2.81-9.723,10.155-9.723c2.375,0,3.023,2.376,2.159,8.858l-3.241,27.006
		c-2.16,16.635,1.729,27.654,7.993,27.654c8.21,0,13.181-11.666,15.126-28.521c0.215-1.943,5.398-1.08,4.968,2.161
		c-1.513,12.964-8.21,33.055-23.331,33.055c-12.102,0-20.095-11.45-17.285-34.352C477.83,104.9,479.341,93.882,481.286,78.759z"/>
	<path fill="#FFFFFF" d="M529.03,77.895c0,0-0.434,3.024-0.864,7.561c5.834-7.345,13.826-14.043,21.388-15.771
		c14.044-2.808,22.688,6.481,19.66,31.327c0,0-0.432,3.241-0.432,3.891c-2.375,19.443-0.647,27.654,5.619,27.654
		c7.56,0,13.394-11.666,15.339-28.521c0.215-1.943,5.398-1.08,4.968,2.162c-1.511,12.963-9.938,33.054-25.494,33.054
		c-12.098,0-15.771-11.665-13.611-30.029c0.219-0.863,0.649-4.97,0.649-4.97c2.378-18.796-1.081-28.951-8.858-28.087
		c-9.505,1.297-19.013,15.989-21.173,24.63l-3.457,28.951c-0.432,3.889,0.219,9.724-7.13,9.724c-5.185,0-6.264-2.379-5.617-8.645
		c0,0,6.053-46.882,6.698-51.851c0.434-3.89,1.729-9.723,9.073-9.723C530.758,69.252,529.895,71.628,529.03,77.895z"/>
</g>
<path fill="#FFFFFF" d="M489.609,54.362c-4.971,0-7.347-3.456-6.698-8.209c0.648-4.753,3.674-7.994,8.641-7.994
	c4.756,0,7.349,3.241,6.698,7.994C497.604,50.907,494.361,54.362,489.609,54.362z"/>
</svg>
